<?xml version="1.0" standalone="no"?>
<!DOCTYPE svg PUBLIC "-//W3C//DTD SVG 20010904//EN"
 "http://www.w3.org/TR/2001/REC-SVG-20010904/DTD/svg10.dtd">
<svg version="1.0" xmlns="http://www.w3.org/2000/svg"
 width="800.000000pt" height="800.000000pt" viewBox="0 0 800.000000 800.000000"
 preserveAspectRatio="xMidYMid meet">
<metadata>
Created by potrace 1.14, written by Peter Selinger 2001-2017
</metadata>
<g transform="translate(0.000000,800.000000) scale(0.100000,-0.100000)"
fill="#000000" stroke="none">
<path d="M5336 7198 c-23 -61 -63 -275 -76 -397 -20 -199 -8 -397 35 -616 30
-148 61 -246 127 -395 93 -213 183 -346 343 -506 160 -160 302 -251 491 -313
170 -55 237 -66 414 -66 173 0 243 14 411 82 74 29 89 39 88 57 0 19 -9 52
-53 211 -17 57 -52 160 -65 190 -5 11 -19 47 -32 80 -12 33 -26 64 -31 70 -4
5 -8 17 -8 27 0 10 -4 18 -10 18 -5 0 -10 7 -10 15 0 15 -59 136 -70 145 -4 3
-10 17 -13 32 -4 15 -14 33 -22 42 -8 8 -15 22 -15 30 0 9 -4 16 -10 16 -5 0
-10 4 -10 10 0 8 -66 118 -87 145 -5 6 -23 33 -41 60 -33 51 -36 56 -117 160
-121 157 -380 420 -486 492 -13 10 -40 32 -59 50 -19 18 -43 36 -52 39 -10 3
-18 9 -18 13 0 5 -13 14 -30 21 -16 7 -30 16 -30 20 0 3 -12 13 -27 21 -16 8
-33 19 -40 24 -6 6 -34 24 -62 40 -28 17 -51 33 -51 38 0 4 -5 7 -11 7 -6 0
-31 14 -56 30 -24 17 -51 30 -59 30 -7 0 -14 3 -14 8 0 4 -33 22 -72 41 -40
18 -89 42 -109 52 -20 11 -39 19 -42 19 -3 0 -12 -19 -21 -42z"/>
<path d="M2694 7186 c-27 -13 -56 -26 -64 -30 -8 -3 -37 -19 -65 -35 -27 -16
-66 -38 -85 -47 -19 -10 -41 -24 -48 -30 -6 -7 -21 -16 -32 -19 -11 -3 -20
-10 -20 -14 0 -5 -13 -14 -30 -21 -16 -7 -30 -16 -30 -21 0 -5 -6 -9 -12 -9
-7 0 -25 -10 -40 -23 -14 -12 -52 -41 -85 -64 -32 -23 -69 -53 -83 -65 -14
-13 -55 -48 -90 -77 -82 -70 -269 -256 -340 -341 -30 -35 -65 -76 -77 -90 -13
-13 -23 -28 -23 -31 0 -4 -16 -24 -35 -45 -19 -21 -35 -43 -35 -50 0 -7 -3
-14 -7 -16 -10 -4 -73 -94 -73 -103 0 -3 -13 -26 -30 -50 -16 -24 -30 -46 -30
-50 0 -8 -43 -69 -52 -73 -5 -2 -8 -12 -8 -23 0 -10 -4 -19 -10 -19 -5 0 -10
-9 -10 -20 0 -11 -4 -20 -10 -20 -5 0 -10 -6 -10 -13 0 -18 -24 -67 -32 -67
-5 0 -8 -6 -8 -13 0 -7 -9 -31 -19 -53 -48 -99 -81 -176 -81 -187 0 -7 -9 -32
-20 -55 -11 -22 -20 -49 -20 -60 0 -10 -4 -22 -9 -27 -15 -15 -62 -194 -75
-281 l-6 -42 98 -36 c123 -46 216 -66 312 -66 253 0 504 71 694 197 176 117
310 250 430 426 62 92 165 304 210 434 98 285 129 648 81 968 -16 105 -53 265
-64 278 -4 4 -29 -4 -57 -17z"/>
<path d="M2845 5003 c-72 -16 -183 -60 -232 -92 -108 -71 -214 -202 -252 -314
-90 -259 -13 -541 193 -708 101 -82 224 -131 363 -145 77 -8 237 25 317 65
163 81 289 237 336 416 8 28 17 52 21 55 4 3 218 3 476 0 l468 -5 3 -30 c9
-92 63 -218 134 -311 74 -99 229 -196 359 -224 84 -19 259 -9 339 19 271 94
447 361 426 643 -11 139 -58 262 -139 357 -129 151 -298 231 -488 231 -178 0
-321 -60 -449 -189 -81 -82 -128 -159 -164 -270 l-21 -66 -470 -3 -470 -2 -23
87 c-34 134 -74 205 -172 304 -94 95 -176 143 -301 173 -60 15 -206 20 -254 9z
m255 -64 c234 -65 398 -250 431 -487 15 -103 -6 -225 -55 -329 -45 -93 -159
-212 -251 -260 -121 -63 -284 -82 -417 -48 -185 48 -349 206 -409 395 -30 94
-30 251 0 340 34 98 78 168 150 240 147 145 359 203 551 149z m2191 -43 c104
-22 203 -78 285 -160 222 -223 230 -568 19 -795 -117 -126 -260 -191 -421
-191 -105 0 -156 12 -263 61 -142 66 -257 203 -306 367 -23 73 -21 245 3 312
38 109 83 184 151 250 144 141 335 197 532 156z"/>
<path d="M3960 3344 c-14 -2 -65 -9 -115 -15 -333 -40 -638 -189 -886 -432
-276 -269 -434 -640 -416 -976 15 -288 193 -560 552 -846 199 -158 412 -286
841 -505 l142 -72 178 90 c161 82 252 130 409 217 70 39 348 226 420 283 88
69 293 270 328 322 17 25 33 47 36 50 9 8 76 120 101 170 47 93 62 152 67 271
15 316 -111 656 -339 916 -73 84 -217 209 -318 277 -89 60 -270 146 -379 180
-174 55 -484 90 -621 70z m746 -1118 c7 -18 -47 -172 -92 -260 -87 -172 -242
-306 -391 -336 -34 -7 -106 -11 -173 -8 -108 4 -121 6 -191 40 -135 64 -218
149 -304 310 -35 66 -105 242 -105 265 0 2 281 3 625 3 526 0 626 -2 631 -14z"/>
</g>
</svg>
